<svg width="57" height="57" viewBox="0 0 57 57" fill="none" xmlns="http://www.w3.org/2000/svg">
<rect x="0.926482" y="0.926482" width="54.5875" height="54.5875" rx="9.07352" fill="#8C6D51" stroke="#E6E4D8" stroke-width="1.85296"/>
<path d="M36.9725 33.3202V32.7869H40.6957V33.3202H39.1347V37.7513H38.5335V33.3202H36.9725Z" fill="#E6E4D8"/>
<path d="M42.135 37.8386C41.8991 37.8386 41.6849 37.7941 41.4926 37.7052C41.3003 37.6148 41.1476 37.4847 41.0345 37.315C40.9214 37.1437 40.8648 36.9368 40.8648 36.6944C40.8648 36.4811 40.9068 36.3082 40.9909 36.1757C41.0749 36.0416 41.1872 35.9365 41.3278 35.8606C41.4684 35.7846 41.6235 35.7281 41.7932 35.6909C41.9645 35.6521 42.1366 35.6214 42.3095 35.5988C42.5358 35.5697 42.7192 35.5479 42.8598 35.5333C43.002 35.5172 43.1054 35.4905 43.1701 35.4533C43.2363 35.4162 43.2695 35.3515 43.2695 35.2594V35.24C43.2695 35.0008 43.204 34.815 43.0731 34.6825C42.9438 34.55 42.7475 34.4837 42.4841 34.4837C42.211 34.4837 41.9968 34.5435 41.8417 34.6631C41.6866 34.7827 41.5775 34.9104 41.5145 35.0461L40.9715 34.8522C41.0684 34.6259 41.1977 34.4498 41.3593 34.3237C41.5225 34.1961 41.7003 34.1072 41.8926 34.0571C42.0865 34.0054 42.2772 33.9795 42.4647 33.9795C42.5843 33.9795 42.7216 33.9941 42.8768 34.0232C43.0335 34.0506 43.1846 34.108 43.3301 34.1953C43.4771 34.2825 43.5991 34.4142 43.6961 34.5904C43.793 34.7665 43.8415 35.0025 43.8415 35.2982V37.7513H43.2695V37.2471H43.2404C43.2016 37.3279 43.1369 37.4144 43.0464 37.5065C42.9559 37.5986 42.8355 37.677 42.6853 37.7416C42.535 37.8062 42.3516 37.8386 42.135 37.8386ZM42.2223 37.3247C42.4485 37.3247 42.6392 37.2802 42.7943 37.1914C42.9511 37.1025 43.0691 36.9877 43.1483 36.8471C43.2291 36.7066 43.2695 36.5587 43.2695 36.4035V35.88C43.2452 35.909 43.1919 35.9357 43.1095 35.96C43.0287 35.9826 42.9349 36.0028 42.8283 36.0206C42.7232 36.0367 42.6206 36.0513 42.5204 36.0642C42.4219 36.0755 42.3419 36.0852 42.2805 36.0933C42.1318 36.1127 41.9928 36.1442 41.8635 36.1878C41.7359 36.2298 41.6324 36.2937 41.5532 36.3793C41.4757 36.4633 41.4369 36.5781 41.4369 36.7235C41.4369 36.9223 41.5104 37.0726 41.6575 37.1744C41.8062 37.2746 41.9944 37.3247 42.2223 37.3247Z" fill="#E6E4D8"/>
<path d="M47.523 34.8619L47.0091 35.0073C46.9768 34.9217 46.9291 34.8384 46.8661 34.7576C46.8047 34.6752 46.7207 34.6073 46.614 34.554C46.5073 34.5007 46.3708 34.474 46.2043 34.474C45.9765 34.474 45.7866 34.5265 45.6347 34.6316C45.4844 34.735 45.4093 34.8667 45.4093 35.0267C45.4093 35.1689 45.461 35.2812 45.5644 35.3636C45.6678 35.4461 45.8294 35.5147 46.0492 35.5697L46.6019 35.7054C46.9348 35.7862 47.1828 35.9099 47.3461 36.0763C47.5093 36.2411 47.5909 36.4536 47.5909 36.7138C47.5909 36.9271 47.5295 37.1178 47.4067 37.2859C47.2854 37.454 47.1158 37.5865 46.8976 37.6834C46.6794 37.7804 46.4257 37.8289 46.1365 37.8289C45.7567 37.8289 45.4424 37.7465 45.1935 37.5816C44.9447 37.4168 44.7871 37.176 44.7208 36.8593L45.2638 36.7235C45.3155 36.9239 45.4133 37.0742 45.5571 37.1744C45.7026 37.2746 45.8924 37.3247 46.1268 37.3247C46.3934 37.3247 46.6051 37.2681 46.7619 37.155C46.9202 37.0403 46.9994 36.9029 46.9994 36.7429C46.9994 36.6136 46.9542 36.5054 46.8637 36.4181C46.7732 36.3292 46.6342 36.263 46.4467 36.2193L45.8262 36.0739C45.4852 35.9931 45.2347 35.8678 45.0747 35.6982C44.9164 35.5269 44.8372 35.3127 44.8372 35.0558C44.8372 34.8457 44.8962 34.6599 45.0141 34.4983C45.1337 34.3367 45.2961 34.2098 45.5014 34.1177C45.7082 34.0256 45.9425 33.9795 46.2043 33.9795C46.5728 33.9795 46.8621 34.0603 47.0721 34.2219C47.2838 34.3835 47.4341 34.5968 47.523 34.8619Z" fill="#E6E4D8"/>
<path d="M48.9853 36.3939L48.9756 35.686H49.092L50.7209 34.028H51.4287L49.6931 35.783H49.6446L48.9853 36.3939ZM48.452 37.7513V32.7869H49.0241V37.7513H48.452ZM50.8179 37.7513L49.3634 35.909L49.7707 35.5115L51.5451 37.7513H50.8179Z" fill="#E6E4D8"/>
<path d="M38.5879 43.2982V39.5749H39.16V43.2982H38.5879ZM38.8788 38.9544C38.7673 38.9544 38.6711 38.9164 38.5903 38.8404C38.5112 38.7645 38.4716 38.6732 38.4716 38.5665C38.4716 38.4599 38.5112 38.3686 38.5903 38.2926C38.6711 38.2167 38.7673 38.1787 38.8788 38.1787C38.9903 38.1787 39.0856 38.2167 39.1648 38.2926C39.2456 38.3686 39.286 38.4599 39.286 38.5665C39.286 38.6732 39.2456 38.7645 39.1648 38.8404C39.0856 38.9164 38.9903 38.9544 38.8788 38.9544Z" fill="#E6E4D8"/>
<path d="M43.2523 39.5749L41.8755 43.2982H41.2937L39.9169 39.5749H40.5374L41.5652 42.5419H41.604L42.6318 39.5749H43.2523Z" fill="#E6E4D8"/>
<path d="M45.4352 43.3758C45.0764 43.3758 44.7669 43.2966 44.5068 43.1382C44.2482 42.9782 44.0486 42.7552 43.908 42.4692C43.7691 42.1815 43.6996 41.847 43.6996 41.4656C43.6996 41.0843 43.7691 40.7481 43.908 40.4573C44.0486 40.1648 44.2442 39.9369 44.4947 39.7737C44.7467 39.6088 45.0409 39.5264 45.377 39.5264C45.5709 39.5264 45.7624 39.5587 45.9515 39.6234C46.1406 39.688 46.3127 39.7931 46.4678 39.9385C46.6229 40.0823 46.7466 40.273 46.8387 40.5106C46.9308 40.7481 46.9768 41.0406 46.9768 41.3881V41.6305H44.1068V41.136H46.3951C46.3951 40.9259 46.3531 40.7384 46.269 40.5736C46.1866 40.4088 46.0686 40.2787 45.9151 40.1833C45.7632 40.088 45.5838 40.0403 45.377 40.0403C45.1491 40.0403 44.952 40.0969 44.7855 40.21C44.6207 40.3215 44.4938 40.4669 44.405 40.6463C44.3161 40.8257 44.2716 41.018 44.2716 41.2232V41.5529C44.2716 41.8341 44.3201 42.0725 44.4171 42.268C44.5157 42.4619 44.6522 42.6098 44.8267 42.7116C45.0013 42.8118 45.2041 42.8619 45.4352 42.8619C45.5855 42.8619 45.7212 42.8409 45.8424 42.7989C45.9652 42.7552 46.0711 42.6906 46.16 42.6049C46.2488 42.5177 46.3175 42.4094 46.366 42.2801L46.9187 42.4353C46.8605 42.6227 46.7627 42.7875 46.6254 42.9298C46.488 43.0703 46.3183 43.1802 46.1163 43.2594C45.9143 43.337 45.6873 43.3758 45.4352 43.3758Z" fill="#E6E4D8"/>
<path d="M47.8471 43.2982V39.5749H48.3997V40.1373H48.4385C48.5064 39.9531 48.6292 39.8036 48.807 39.6888C48.9847 39.5741 49.1851 39.5167 49.4081 39.5167C49.4502 39.5167 49.5027 39.5175 49.5657 39.5192C49.6287 39.5208 49.6764 39.5232 49.7087 39.5264V40.1082C49.6893 40.1033 49.6449 40.0961 49.5754 40.0864C49.5075 40.0751 49.4356 40.0694 49.3597 40.0694C49.1787 40.0694 49.0171 40.1074 48.8749 40.1833C48.7343 40.2577 48.6228 40.3611 48.5403 40.4936C48.4595 40.6245 48.4191 40.774 48.4191 40.9421V43.2982H47.8471Z" fill="#E6E4D8"/>
<path d="M4.77493 14.9047V11.498H25.4732L28.4653 11.8536L28.5717 14.9047H18.5944V43.2107H14.7522V14.9047H4.77493Z" fill="#E6E4D8"/>
<path d="M14.7522 43.2107L14.7523 11.498H25.4732C27.9521 11.498 29.9868 11.9213 31.5774 12.7678C33.1679 13.604 34.3454 14.755 35.1097 16.2209C35.874 17.6868 36.2562 19.354 36.2562 21.2224C36.2562 23.0909 35.874 24.7478 35.1097 26.193C34.3454 27.6383 33.1731 28.7738 31.5928 29.5997C30.0126 30.4152 27.9934 30.823 25.5352 30.823H16.8593V27.3544H25.4113C27.1051 27.3544 28.4685 27.1066 29.5013 26.6111C30.5445 26.1156 31.2985 25.4136 31.7633 24.5052C32.2384 23.5864 32.4759 22.4922 32.4759 21.2224C32.4759 19.9527 32.2384 18.843 31.7633 17.8932C31.2882 16.9435 30.529 16.2106 29.4858 15.6944C28.4427 15.1679 27.0638 14.9047 25.3493 14.9047H18.5944V43.2107H14.7522ZM29.6872 28.9648L37.4956 43.2107H33.0337L25.3493 28.9648H29.6872Z" fill="#E6E4D8"/>
</svg>
