<svg width="47" height="47" viewBox="0 0 47 47" fill="none" xmlns="http://www.w3.org/2000/svg">
<path d="M23.8889 0.75C11.1929 0.75 0.888916 11.054 0.888916 23.75C0.888916 36.446 11.1929 46.75 23.8889 46.75C36.5849 46.75 46.8889 36.446 46.8889 23.75C46.8889 11.054 36.5849 0.75 23.8889 0.75ZM34.5609 16.39C34.2159 20.024 32.7209 28.856 31.9619 32.927C31.6399 34.652 30.9959 35.227 30.3979 35.296C29.0639 35.411 28.0519 34.422 26.7639 33.571C24.7399 32.237 23.5899 31.409 21.6349 30.121C19.3579 28.626 20.8299 27.798 22.1409 26.464C22.4859 26.119 28.3739 20.76 28.4889 20.277C28.5049 20.2038 28.5028 20.1279 28.4827 20.0557C28.4627 19.9836 28.4253 19.9174 28.3739 19.863C28.2359 19.748 28.0519 19.794 27.8909 19.817C27.6839 19.863 24.4639 22.002 18.1849 26.234C17.2649 26.855 16.4369 27.177 15.7009 27.154C14.8729 27.131 13.3089 26.694 12.1359 26.303C10.6869 25.843 9.55992 25.59 9.65192 24.785C9.69792 24.371 10.2729 23.957 11.3539 23.52C18.0699 20.599 22.5319 18.667 24.7629 17.747C31.1569 15.079 32.4679 14.619 33.3419 14.619C33.5259 14.619 33.9629 14.665 34.2389 14.895C34.4689 15.079 34.5379 15.332 34.5609 15.516C34.5379 15.654 34.5839 16.068 34.5609 16.39Z" fill="#E6E4D8"/>
</svg>
