<svg width="47" height="47" viewBox="0 0 47 47" fill="none" xmlns="http://www.w3.org/2000/svg">
<path d="M30.8457 0.75H16.7352C3.84143 0.75 0.777832 3.8159 0.777832 16.6821V30.7949C0.777832 43.6841 3.82073 46.75 16.7099 46.75H30.8227C43.7119 46.75 46.7778 43.7071 46.7778 30.8179V16.7074C46.7778 3.8136 43.7349 0.75 30.8457 0.75ZM37.9136 33.571H34.5579C33.2883 33.571 32.9065 32.5429 30.6295 30.2659C28.6423 28.35 27.8028 28.1108 27.2991 28.1108C26.6045 28.1108 26.4136 28.3017 26.4136 29.2608V32.2784C26.4136 33.0949 26.1491 33.5733 24.017 33.5733C21.9482 33.4328 19.9422 32.8035 18.1638 31.7372C16.3854 30.6708 14.8852 29.1979 13.7866 27.4392C11.1792 24.1974 9.3661 20.3907 8.49203 16.3233C8.49203 15.8196 8.68293 15.3642 9.64203 15.3642H12.9977C13.8602 15.3642 14.1707 15.7483 14.5065 16.6338C16.1349 21.427 18.9133 25.5946 20.0403 25.5946C20.4727 25.5946 20.6613 25.4037 20.6613 24.325V19.3892C20.5187 17.1375 19.3227 16.9466 19.3227 16.1324C19.3381 15.9176 19.4365 15.7173 19.5971 15.5739C19.7577 15.4305 19.9678 15.3553 20.1829 15.3642H25.4545C26.1744 15.3642 26.4136 15.723 26.4136 16.5855V23.2463C26.4136 23.9662 26.7241 24.2054 26.9403 24.2054C27.3727 24.2054 27.7062 23.9662 28.4974 23.175C30.1968 21.1026 31.5852 18.7937 32.619 16.321C32.7254 16.0244 32.9254 15.7706 33.189 15.5979C33.4525 15.4253 33.7652 15.3432 34.0795 15.3642H37.4352C38.4403 15.3642 38.6542 15.8679 38.4403 16.5855C37.2202 19.3189 35.7105 21.9136 33.9369 24.325C33.5758 24.877 33.4309 25.1645 33.9369 25.8108C34.2704 26.3145 35.4457 27.2966 36.2369 28.2304C37.3863 29.3777 38.341 30.7045 39.0636 32.1588C39.3511 33.0926 38.8704 33.571 37.9136 33.571Z" fill="#E6E4D8"/>
</svg>
