<svg width="46" height="47" viewBox="0 0 46 47" fill="none" xmlns="http://www.w3.org/2000/svg">
<path fill-rule="evenodd" clip-rule="evenodd" d="M33.2222 0.75H12.7778C5.72082 0.75 0 6.47082 0 13.5278V33.9722C0 41.0291 5.72082 46.75 12.7778 46.75H33.2222C40.2791 46.75 46 41.0291 46 33.9722V13.5278C46 6.47082 40.2791 0.75 33.2222 0.75ZM41.5278 33.9722C41.5137 38.5533 37.8033 42.2637 33.2222 42.2778H12.7778C8.19656 42.2637 4.48625 38.5533 4.47222 33.9722V13.5278C4.48625 8.94656 8.19656 5.23625 12.7778 5.22222H33.2222C37.8033 5.23625 41.5137 8.94656 41.5278 13.5278V33.9722ZM35.1389 14.1667C36.5503 14.1667 37.6944 13.0225 37.6944 11.6111C37.6944 10.1997 36.5503 9.05556 35.1389 9.05556C33.7275 9.05556 32.5833 10.1997 32.5833 11.6111C32.5833 13.0225 33.7275 14.1667 35.1389 14.1667ZM23 12.25C16.6487 12.25 11.5 17.3987 11.5 23.75C11.5 30.1013 16.6487 35.25 23 35.25C29.3513 35.25 34.5 30.1013 34.5 23.75C34.5069 20.6979 33.2974 17.7689 31.1392 15.6108C28.981 13.4526 26.0521 12.2432 23 12.25ZM15.9722 23.75C15.9722 27.6314 19.1186 30.7778 23 30.7778C26.8814 30.7778 30.0278 27.6314 30.0278 23.75C30.0278 19.8686 26.8814 16.7222 23 16.7222C19.1186 16.7222 15.9722 19.8686 15.9722 23.75Z" fill="#E6E4D8"/>
</svg>
